<mxfile compressed="false" host="app.diagrams.net" modified="2022-12-11T15:58:42.986Z" agent="5.0 (Windows NT 6.1) AppleWebKit/537.36 (KHTML, like Gecko) Chrome/108.0.0.0 Safari/537.36" version="20.6.2" etag="Gvs772Gs9Wz-38RtQznC" type="device">
  <diagram id="GO4F9No3P0sXyBv6SvOo" name="Page-1">
    <mxGraphModel dx="1652" dy="782" grid="1" gridSize="10" guides="1" tooltips="1" connect="1" arrows="1" fold="1" page="1" pageScale="1" pageWidth="827" pageHeight="1169" math="0" shadow="0">
      <root>
        <mxCell id="0" />
        <mxCell id="1" parent="0" />
        <mxCell id="Z3ttoW-eU30NM1c1VrTI-139" value="" style="swimlane;fontStyle=2;childLayout=stackLayout;horizontal=1;startSize=28;horizontalStack=1;resizeParent=1;resizeParentMax=0;resizeLast=0;collapsible=0;marginBottom=0;swimlaneFillColor=none;fontFamily=Permanent Marker;fontSize=16;points=[];verticalAlign=top;stackBorder=0;resizable=1;strokeWidth=2;sketch=1;disableMultiStroke=1;strokeColor=#FF33FF;" vertex="1" parent="1">
          <mxGeometry x="-220" y="100" width="810" height="1010" as="geometry" />
        </mxCell>
        <object label="TO DO" status="New" id="Z3ttoW-eU30NM1c1VrTI-140">
          <mxCell style="swimlane;strokeWidth=2;fontFamily=Permanent Marker;html=0;startSize=1;verticalAlign=bottom;spacingBottom=5;points=[];childLayout=stackLayout;stackBorder=20;stackSpacing=20;resizeLast=0;resizeParent=1;horizontalStack=0;collapsible=0;sketch=1;strokeColor=#FF3333;fillStyle=solid;fillColor=#A0522D;" vertex="1" parent="Z3ttoW-eU30NM1c1VrTI-139">
            <mxGeometry y="28" width="260" height="982" as="geometry" />
          </mxCell>
        </object>
        <mxCell id="Z3ttoW-eU30NM1c1VrTI-175" value="git hub (repositorios)" style="strokeWidth=1;shadow=0;dashed=0;align=center;html=1;shape=mxgraph.mockup.text.stickyNote2;fontColor=#666666;mainText=;fontSize=17;whiteSpace=wrap;fillColor=#ffffcc;strokeColor=#F62E00;" vertex="1" parent="Z3ttoW-eU30NM1c1VrTI-140">
          <mxGeometry x="20" y="21" width="220" height="200" as="geometry" />
        </mxCell>
        <mxCell id="Z3ttoW-eU30NM1c1VrTI-163" value="FrontEnd" style="strokeWidth=1;shadow=0;dashed=0;align=center;html=1;shape=mxgraph.mockup.text.stickyNote2;fontColor=#666666;mainText=;fontSize=17;whiteSpace=wrap;fillColor=#ffffcc;strokeColor=#F62E00;" vertex="1" parent="Z3ttoW-eU30NM1c1VrTI-140">
          <mxGeometry x="20" y="241" width="220" height="139" as="geometry" />
        </mxCell>
        <mxCell id="Z3ttoW-eU30NM1c1VrTI-172" value="Ingles&lt;br&gt;complementario" style="strokeWidth=1;shadow=0;dashed=0;align=center;html=1;shape=mxgraph.mockup.text.stickyNote2;fontColor=#666666;mainText=;fontSize=17;whiteSpace=wrap;fillColor=#ffffcc;strokeColor=#F62E00;" vertex="1" parent="Z3ttoW-eU30NM1c1VrTI-140">
          <mxGeometry x="20" y="400" width="220" height="150" as="geometry" />
        </mxCell>
        <mxCell id="Z3ttoW-eU30NM1c1VrTI-166" value="BackEnd" style="strokeWidth=1;shadow=0;dashed=0;align=center;html=1;shape=mxgraph.mockup.text.stickyNote2;fontColor=#666666;mainText=;fontSize=17;whiteSpace=wrap;fillColor=#ffffcc;strokeColor=#F62E00;" vertex="1" parent="Z3ttoW-eU30NM1c1VrTI-140">
          <mxGeometry x="20" y="570" width="220" height="120" as="geometry" />
        </mxCell>
        <mxCell id="Z3ttoW-eU30NM1c1VrTI-165" value="Base de Daros" style="strokeWidth=1;shadow=0;dashed=0;align=center;html=1;shape=mxgraph.mockup.text.stickyNote2;fontColor=#666666;mainText=;fontSize=17;whiteSpace=wrap;fillColor=#ffffcc;strokeColor=#F62E00;" vertex="1" parent="Z3ttoW-eU30NM1c1VrTI-140">
          <mxGeometry x="20" y="710" width="220" height="150" as="geometry" />
        </mxCell>
        <object label="DOING" status="In progress" id="Z3ttoW-eU30NM1c1VrTI-144">
          <mxCell style="swimlane;strokeWidth=2;fontFamily=Permanent Marker;html=0;startSize=1;verticalAlign=bottom;spacingBottom=5;points=[];childLayout=stackLayout;stackBorder=20;stackSpacing=20;resizeLast=0;resizeParent=1;horizontalStack=0;collapsible=0;sketch=1;strokeColor=#00FFFF;fillStyle=solid;fillColor=#006600;" vertex="1" parent="Z3ttoW-eU30NM1c1VrTI-139">
            <mxGeometry x="260" y="28" width="270" height="982" as="geometry" />
          </mxCell>
        </object>
        <mxCell id="Z3ttoW-eU30NM1c1VrTI-176" value="creación de repositorios remotos" style="strokeWidth=1;shadow=0;dashed=0;align=center;html=1;shape=mxgraph.mockup.text.stickyNote2;fontColor=#666666;mainText=;fontSize=17;whiteSpace=wrap;fillColor=#ffffcc;strokeColor=#F62E00;" vertex="1" parent="Z3ttoW-eU30NM1c1VrTI-144">
          <mxGeometry x="20" y="21" width="230" height="200" as="geometry" />
        </mxCell>
        <mxCell id="Z3ttoW-eU30NM1c1VrTI-164" value="Estudio de HTM CSS yJavaSript" style="strokeWidth=1;shadow=0;dashed=0;align=center;html=1;shape=mxgraph.mockup.text.stickyNote2;fontColor=#666666;mainText=;fontSize=17;whiteSpace=wrap;fillColor=#ffffcc;strokeColor=#F62E00;" vertex="1" parent="Z3ttoW-eU30NM1c1VrTI-144">
          <mxGeometry x="20" y="241" width="230" height="149" as="geometry" />
        </mxCell>
        <mxCell id="Z3ttoW-eU30NM1c1VrTI-167" value="Profundizo los conocimientos que tengo en ingles y adquiero nuevos terminos" style="strokeWidth=1;shadow=0;dashed=0;align=center;html=1;shape=mxgraph.mockup.text.stickyNote2;fontColor=#666666;mainText=;fontSize=17;whiteSpace=wrap;fillColor=#ffffcc;strokeColor=#F62E00;" vertex="1" parent="Z3ttoW-eU30NM1c1VrTI-144">
          <mxGeometry x="20" y="410" width="230" height="140" as="geometry" />
        </mxCell>
        <mxCell id="Z3ttoW-eU30NM1c1VrTI-169" value="" style="strokeWidth=1;shadow=0;dashed=0;align=center;html=1;shape=mxgraph.mockup.text.stickyNote2;fontColor=#666666;mainText=;fontSize=17;whiteSpace=wrap;fillColor=#ffffcc;strokeColor=#F62E00;" vertex="1" parent="Z3ttoW-eU30NM1c1VrTI-144">
          <mxGeometry x="20" y="570" width="230" height="140" as="geometry" />
        </mxCell>
        <object label="DONE" status="Completed" id="Z3ttoW-eU30NM1c1VrTI-147">
          <mxCell style="swimlane;strokeWidth=2;fontFamily=Permanent Marker;html=0;startSize=1;verticalAlign=bottom;spacingBottom=5;points=[];childLayout=stackLayout;stackBorder=20;stackSpacing=20;resizeLast=0;resizeParent=1;horizontalStack=0;collapsible=0;sketch=1;strokeColor=#FF33FF;fillStyle=solid;fillColor=#1BA1E2;" vertex="1" parent="Z3ttoW-eU30NM1c1VrTI-139">
            <mxGeometry x="530" y="28" width="280" height="982" as="geometry" />
          </mxCell>
        </object>
        <mxCell id="Z3ttoW-eU30NM1c1VrTI-177" value="finalizo el enlace de respositorios remotos" style="strokeWidth=1;shadow=0;dashed=0;align=center;html=1;shape=mxgraph.mockup.text.stickyNote2;fontColor=#666666;mainText=;fontSize=17;whiteSpace=wrap;fillColor=#ffffcc;strokeColor=#F62E00;" vertex="1" parent="Z3ttoW-eU30NM1c1VrTI-147">
          <mxGeometry x="20" y="21" width="240" height="200" as="geometry" />
        </mxCell>
        <mxCell id="Z3ttoW-eU30NM1c1VrTI-173" value="Respaso de html y css con ajustes y correcciones" style="strokeWidth=1;shadow=0;dashed=0;align=center;html=1;shape=mxgraph.mockup.text.stickyNote2;fontColor=#666666;mainText=;fontSize=17;whiteSpace=wrap;fillColor=#ffffcc;strokeColor=#F62E00;" vertex="1" parent="Z3ttoW-eU30NM1c1VrTI-147">
          <mxGeometry x="20" y="241" width="240" height="159" as="geometry" />
        </mxCell>
        <mxCell id="Z3ttoW-eU30NM1c1VrTI-171" value="comprensión lectora" style="strokeWidth=1;shadow=0;dashed=0;align=center;html=1;shape=mxgraph.mockup.text.stickyNote2;fontColor=#666666;mainText=;fontSize=17;whiteSpace=wrap;fillColor=#ffffcc;strokeColor=#F62E00;" vertex="1" parent="Z3ttoW-eU30NM1c1VrTI-147">
          <mxGeometry x="20" y="420" width="240" height="120" as="geometry" />
        </mxCell>
        <mxCell id="Z3ttoW-eU30NM1c1VrTI-168" value="" style="strokeWidth=1;shadow=0;dashed=0;align=center;html=1;shape=mxgraph.mockup.text.stickyNote2;fontColor=#666666;mainText=;fontSize=17;whiteSpace=wrap;fillColor=#ffffcc;strokeColor=#F62E00;" vertex="1" parent="Z3ttoW-eU30NM1c1VrTI-147">
          <mxGeometry x="20" y="560" width="240" height="100" as="geometry" />
        </mxCell>
        <mxCell id="Z3ttoW-eU30NM1c1VrTI-170" value="" style="strokeWidth=1;shadow=0;dashed=0;align=center;html=1;shape=mxgraph.mockup.text.stickyNote2;fontColor=#666666;mainText=;fontSize=17;whiteSpace=wrap;fillColor=#ffffcc;strokeColor=#F62E00;" vertex="1" parent="Z3ttoW-eU30NM1c1VrTI-147">
          <mxGeometry x="20" y="680" width="240" height="100" as="geometry" />
        </mxCell>
        <mxCell id="Z3ttoW-eU30NM1c1VrTI-174" value="&lt;font style=&quot;font-size: 24px;&quot;&gt;Mi portfolio. Argentina Programa Mi SCRUM&lt;/font&gt;" style="strokeWidth=1;shadow=0;dashed=0;align=center;html=1;shape=mxgraph.mockup.text.textBox;fontColor=#666666;align=left;fontSize=17;spacingLeft=4;spacingTop=-3;strokeColor=#666666;mainText=" vertex="1" parent="1">
          <mxGeometry x="-150" y="40" width="710" height="60" as="geometry" />
        </mxCell>
        <mxCell id="Z3ttoW-eU30NM1c1VrTI-178" value="" style="swimlane;fontStyle=2;childLayout=stackLayout;horizontal=1;startSize=28;horizontalStack=1;resizeParent=1;resizeParentMax=0;resizeLast=0;collapsible=0;marginBottom=0;swimlaneFillColor=none;fontFamily=Permanent Marker;fontSize=16;points=[];verticalAlign=top;stackBorder=0;resizable=1;strokeWidth=2;sketch=1;disableMultiStroke=1;strokeColor=#FF33FF;" vertex="1" parent="1">
          <mxGeometry x="-90" y="1270" width="810" height="1010" as="geometry" />
        </mxCell>
        <object label="TO DO" status="New" id="Z3ttoW-eU30NM1c1VrTI-179">
          <mxCell style="swimlane;strokeWidth=2;fontFamily=Permanent Marker;html=0;startSize=1;verticalAlign=bottom;spacingBottom=5;points=[];childLayout=stackLayout;stackBorder=20;stackSpacing=20;resizeLast=0;resizeParent=1;horizontalStack=0;collapsible=0;sketch=1;strokeColor=#FF3333;fillStyle=solid;fillColor=#A0522D;" vertex="1" parent="Z3ttoW-eU30NM1c1VrTI-178">
            <mxGeometry y="28" width="260" height="982" as="geometry" />
          </mxCell>
        </object>
        <mxCell id="Z3ttoW-eU30NM1c1VrTI-180" value="git hub (repositorios)" style="strokeWidth=1;shadow=0;dashed=0;align=center;html=1;shape=mxgraph.mockup.text.stickyNote2;fontColor=#666666;mainText=;fontSize=17;whiteSpace=wrap;fillColor=#ffffcc;strokeColor=#F62E00;" vertex="1" parent="Z3ttoW-eU30NM1c1VrTI-179">
          <mxGeometry x="20" y="21" width="220" height="200" as="geometry" />
        </mxCell>
        <mxCell id="Z3ttoW-eU30NM1c1VrTI-181" value="FrontEnd" style="strokeWidth=1;shadow=0;dashed=0;align=center;html=1;shape=mxgraph.mockup.text.stickyNote2;fontColor=#666666;mainText=;fontSize=17;whiteSpace=wrap;fillColor=#ffffcc;strokeColor=#F62E00;" vertex="1" parent="Z3ttoW-eU30NM1c1VrTI-179">
          <mxGeometry x="20" y="241" width="220" height="139" as="geometry" />
        </mxCell>
        <mxCell id="Z3ttoW-eU30NM1c1VrTI-182" value="Ingles&lt;br&gt;complementario" style="strokeWidth=1;shadow=0;dashed=0;align=center;html=1;shape=mxgraph.mockup.text.stickyNote2;fontColor=#666666;mainText=;fontSize=17;whiteSpace=wrap;fillColor=#ffffcc;strokeColor=#F62E00;" vertex="1" parent="Z3ttoW-eU30NM1c1VrTI-179">
          <mxGeometry x="20" y="400" width="220" height="150" as="geometry" />
        </mxCell>
        <mxCell id="Z3ttoW-eU30NM1c1VrTI-183" value="BackEnd" style="strokeWidth=1;shadow=0;dashed=0;align=center;html=1;shape=mxgraph.mockup.text.stickyNote2;fontColor=#666666;mainText=;fontSize=17;whiteSpace=wrap;fillColor=#ffffcc;strokeColor=#F62E00;" vertex="1" parent="Z3ttoW-eU30NM1c1VrTI-179">
          <mxGeometry x="20" y="570" width="220" height="120" as="geometry" />
        </mxCell>
        <mxCell id="Z3ttoW-eU30NM1c1VrTI-184" value="Base de Daros" style="strokeWidth=1;shadow=0;dashed=0;align=center;html=1;shape=mxgraph.mockup.text.stickyNote2;fontColor=#666666;mainText=;fontSize=17;whiteSpace=wrap;fillColor=#ffffcc;strokeColor=#F62E00;" vertex="1" parent="Z3ttoW-eU30NM1c1VrTI-179">
          <mxGeometry x="20" y="710" width="220" height="150" as="geometry" />
        </mxCell>
        <object label="DOING" status="In progress" id="Z3ttoW-eU30NM1c1VrTI-185">
          <mxCell style="swimlane;strokeWidth=2;fontFamily=Permanent Marker;html=0;startSize=1;verticalAlign=bottom;spacingBottom=5;points=[];childLayout=stackLayout;stackBorder=20;stackSpacing=20;resizeLast=0;resizeParent=1;horizontalStack=0;collapsible=0;sketch=1;strokeColor=#00FFFF;fillStyle=solid;fillColor=#006600;" vertex="1" parent="Z3ttoW-eU30NM1c1VrTI-178">
            <mxGeometry x="260" y="28" width="270" height="982" as="geometry" />
          </mxCell>
        </object>
        <mxCell id="Z3ttoW-eU30NM1c1VrTI-186" value="creación de repositorios remotos" style="strokeWidth=1;shadow=0;dashed=0;align=center;html=1;shape=mxgraph.mockup.text.stickyNote2;fontColor=#666666;mainText=;fontSize=17;whiteSpace=wrap;fillColor=#ffffcc;strokeColor=#F62E00;" vertex="1" parent="Z3ttoW-eU30NM1c1VrTI-185">
          <mxGeometry x="20" y="21" width="230" height="200" as="geometry" />
        </mxCell>
        <mxCell id="Z3ttoW-eU30NM1c1VrTI-187" value="Estudio de HTM CSS yJavaSript" style="strokeWidth=1;shadow=0;dashed=0;align=center;html=1;shape=mxgraph.mockup.text.stickyNote2;fontColor=#666666;mainText=;fontSize=17;whiteSpace=wrap;fillColor=#ffffcc;strokeColor=#F62E00;" vertex="1" parent="Z3ttoW-eU30NM1c1VrTI-185">
          <mxGeometry x="20" y="241" width="230" height="149" as="geometry" />
        </mxCell>
        <mxCell id="Z3ttoW-eU30NM1c1VrTI-188" value="Profundizo los conocimientos que tengo en ingles y adquiero nuevos terminos" style="strokeWidth=1;shadow=0;dashed=0;align=center;html=1;shape=mxgraph.mockup.text.stickyNote2;fontColor=#666666;mainText=;fontSize=17;whiteSpace=wrap;fillColor=#ffffcc;strokeColor=#F62E00;" vertex="1" parent="Z3ttoW-eU30NM1c1VrTI-185">
          <mxGeometry x="20" y="410" width="230" height="140" as="geometry" />
        </mxCell>
        <mxCell id="Z3ttoW-eU30NM1c1VrTI-189" value="" style="strokeWidth=1;shadow=0;dashed=0;align=center;html=1;shape=mxgraph.mockup.text.stickyNote2;fontColor=#666666;mainText=;fontSize=17;whiteSpace=wrap;fillColor=#ffffcc;strokeColor=#F62E00;" vertex="1" parent="Z3ttoW-eU30NM1c1VrTI-185">
          <mxGeometry x="20" y="570" width="230" height="140" as="geometry" />
        </mxCell>
        <object label="DONE" status="Completed" id="Z3ttoW-eU30NM1c1VrTI-190">
          <mxCell style="swimlane;strokeWidth=2;fontFamily=Permanent Marker;html=0;startSize=1;verticalAlign=bottom;spacingBottom=5;points=[];childLayout=stackLayout;stackBorder=20;stackSpacing=20;resizeLast=0;resizeParent=1;horizontalStack=0;collapsible=0;sketch=1;strokeColor=#FF33FF;fillStyle=solid;fillColor=#1BA1E2;" vertex="1" parent="Z3ttoW-eU30NM1c1VrTI-178">
            <mxGeometry x="530" y="28" width="280" height="982" as="geometry" />
          </mxCell>
        </object>
        <mxCell id="Z3ttoW-eU30NM1c1VrTI-191" value="finalizo el enlace de respositorios remotos" style="strokeWidth=1;shadow=0;dashed=0;align=center;html=1;shape=mxgraph.mockup.text.stickyNote2;fontColor=#666666;mainText=;fontSize=17;whiteSpace=wrap;fillColor=#ffffcc;strokeColor=#F62E00;" vertex="1" parent="Z3ttoW-eU30NM1c1VrTI-190">
          <mxGeometry x="20" y="21" width="240" height="200" as="geometry" />
        </mxCell>
        <mxCell id="Z3ttoW-eU30NM1c1VrTI-192" value="Respaso de html y css con ajustes y correcciones" style="strokeWidth=1;shadow=0;dashed=0;align=center;html=1;shape=mxgraph.mockup.text.stickyNote2;fontColor=#666666;mainText=;fontSize=17;whiteSpace=wrap;fillColor=#ffffcc;strokeColor=#F62E00;" vertex="1" parent="Z3ttoW-eU30NM1c1VrTI-190">
          <mxGeometry x="20" y="241" width="240" height="159" as="geometry" />
        </mxCell>
        <mxCell id="Z3ttoW-eU30NM1c1VrTI-193" value="comprensión lectora" style="strokeWidth=1;shadow=0;dashed=0;align=center;html=1;shape=mxgraph.mockup.text.stickyNote2;fontColor=#666666;mainText=;fontSize=17;whiteSpace=wrap;fillColor=#ffffcc;strokeColor=#F62E00;" vertex="1" parent="Z3ttoW-eU30NM1c1VrTI-190">
          <mxGeometry x="20" y="420" width="240" height="120" as="geometry" />
        </mxCell>
        <mxCell id="Z3ttoW-eU30NM1c1VrTI-194" value="" style="strokeWidth=1;shadow=0;dashed=0;align=center;html=1;shape=mxgraph.mockup.text.stickyNote2;fontColor=#666666;mainText=;fontSize=17;whiteSpace=wrap;fillColor=#ffffcc;strokeColor=#F62E00;" vertex="1" parent="Z3ttoW-eU30NM1c1VrTI-190">
          <mxGeometry x="20" y="560" width="240" height="100" as="geometry" />
        </mxCell>
        <mxCell id="Z3ttoW-eU30NM1c1VrTI-195" value="" style="strokeWidth=1;shadow=0;dashed=0;align=center;html=1;shape=mxgraph.mockup.text.stickyNote2;fontColor=#666666;mainText=;fontSize=17;whiteSpace=wrap;fillColor=#ffffcc;strokeColor=#F62E00;" vertex="1" parent="Z3ttoW-eU30NM1c1VrTI-190">
          <mxGeometry x="20" y="680" width="240" height="100" as="geometry" />
        </mxCell>
        <mxCell id="Z3ttoW-eU30NM1c1VrTI-196" value="&lt;font style=&quot;font-size: 24px;&quot;&gt;Mi portfolio. Argentina Programa Mi SCRUM&lt;/font&gt;" style="strokeWidth=1;shadow=0;dashed=0;align=center;html=1;shape=mxgraph.mockup.text.textBox;fontColor=#666666;align=left;fontSize=17;spacingLeft=4;spacingTop=-3;strokeColor=#666666;mainText=" vertex="1" parent="1">
          <mxGeometry x="-20" y="1210" width="710" height="60" as="geometry" />
        </mxCell>
      </root>
    </mxGraphModel>
  </diagram>
</mxfile>
